#Comment line ignore any data following # character 
#Hierarchical Translation and Rotation (.htr) file 
[Header]	
#Header keywords are followed by a single value 
FileType HTR		#Single word string
DataType HTRS		#Translation followed by rotation and scale data
FileVersion 1		#integer
NumSegments 64		#integer
NumFrames 3		#integer
DataFrameRate 30		#integer, data frame rate in this file
EulerRotationOrder ZYX
CalibrationUnits mm
RotationUnits Degrees
GlobalAxisofGravity Y
BoneLengthAxis Y
ScaleFactor 1.00
[SegmentNames&Hierarchy]
#CHILD	PARENT
Pinger_Root GLOBAL
Pelvis Pinger_Root
L_Hip Pelvis
R_Hip Pelvis
Rear_Leg01 Pelvis
Spine1 Pelvis
L_Leg01 L_Hip
L_Leg02 L_Leg01
L_Leg03 L_Leg02
L_Foot L_Leg03
L_Toe1_01 L_Foot
L_Toe2_01 L_Foot
L_Toe3_01 L_Foot
planeAlignerLeft L_Foot
L_Toe1_02 L_Toe1_01
L_Toe1_03 L_Toe1_02
L_Toe2_02 L_Toe2_01
L_Toe2_03 L_Toe2_02
L_Toe3_02 L_Toe3_01
L_Toe3_03 L_Toe3_02
planeLockWeightLeft planeAlignerLeft
R_Leg01 R_Hip
R_Leg02 R_Leg01
R_Leg03 R_Leg02
R_Foot R_Leg03
planeAlignerRight R_Foot
R_Toe1_01 R_Foot
R_Toe2_01 R_Foot
R_Toe3_01 R_Foot
planeLockWeightRight planeAlignerRight
R_Toe1_02 R_Toe1_01
R_Toe1_03 R_Toe1_02
R_Toe2_02 R_Toe2_01
R_Toe2_03 R_Toe2_02
R_Toe3_02 R_Toe3_01
R_Toe3_03 R_Toe3_02
Rear_Leg02 Rear_Leg01
Rear_Leg03 Rear_Leg02
Rear_Leg04 Rear_Leg03
Rear_Foot Rear_Leg04
planeAlignerCenter Rear_Foot
Rear_Toe1_01 Rear_Foot
Rear_Toe2_01 Rear_Foot
Rear_Toe3_01 Rear_Foot
planeLockWeightCenter planeAlignerCenter
Rear_Toe1_02 Rear_Toe1_01
Rear_Toe1_03 Rear_Toe1_02
Rear_Toe2_02 Rear_Toe2_01
Rear_Toe2_03 Rear_Toe2_02
Rear_Toe3_02 Rear_Toe3_01
Rear_Toe3_03 Rear_Toe3_02
Back_Bone Spine1
Head Spine1
Motor_Bone Back_Bone
Ping_Mechanism Back_Bone
BN_LookIK Head
bottomMouth Head
L_Mouth01 Head
L_mouthFront Head
mouthGun Head
R_Mouth01 Head
R_mouthFront Head
TopMouth Head
weapon_bone Head
[BasePosition]
#SegmentName Tx, Ty, Tz, Rx, Ry, Rz, BoneLength
Pinger_Root 0.000000 0.000000 0.000000 -90.000000 0.000000 0.000000 10.000000 
Pelvis 0.000000 0.000000 0.000000 0.000000 0.000000 0.000000 10.000000 
L_Hip 0.000000 0.000000 0.000000 0.000000 0.000000 0.000000 10.000000 
R_Hip 0.000000 0.000000 0.000000 0.000000 0.000000 0.000000 10.000000 
Rear_Leg01 0.000000 0.000000 0.000000 0.000000 0.000000 0.000000 10.000000 
Spine1 0.000000 0.000000 0.000000 0.000000 0.000000 0.000000 10.000000 
L_Leg01 0.000000 0.000000 0.000000 0.000000 0.000000 0.000000 10.000000 
L_Leg02 0.000000 0.000000 0.000000 0.000000 0.000000 0.000000 10.000000 
L_Leg03 0.000000 0.000000 0.000000 0.000000 0.000000 0.000000 10.000000 
L_Foot 0.000000 0.000000 0.000000 0.000000 0.000000 0.000000 10.000000 
L_Toe1_01 0.000000 0.000000 0.000000 0.000000 0.000000 0.000000 10.000000 
L_Toe2_01 0.000000 0.000000 0.000000 0.000000 0.000000 0.000000 10.000000 
L_Toe3_01 0.000000 0.000000 0.000000 0.000000 0.000000 0.000000 10.000000 
planeAlignerLeft 0.000000 0.000000 0.000000 0.000000 0.000000 0.000000 10.000000 
L_Toe1_02 0.000000 0.000000 0.000000 0.000000 0.000000 0.000000 10.000000 
L_Toe1_03 0.000000 0.000000 0.000000 0.000000 0.000000 0.000000 10.000000 
L_Toe2_02 0.000000 0.000000 0.000000 0.000000 0.000000 0.000000 10.000000 
L_Toe2_03 0.000000 0.000000 0.000000 0.000000 0.000000 0.000000 10.000000 
L_Toe3_02 0.000000 0.000000 0.000000 0.000000 0.000000 0.000000 10.000000 
L_Toe3_03 0.000000 0.000000 0.000000 0.000000 0.000000 0.000000 10.000000 
planeLockWeightLeft 0.000000 0.000000 0.000000 0.000000 0.000000 0.000000 10.000000 
R_Leg01 0.000000 0.000000 0.000000 0.000000 0.000000 0.000000 10.000000 
R_Leg02 0.000000 0.000000 0.000000 0.000000 0.000000 0.000000 10.000000 
R_Leg03 0.000000 0.000000 0.000000 0.000000 0.000000 0.000000 10.000000 
R_Foot 0.000000 0.000000 0.000000 0.000000 0.000000 0.000000 10.000000 
planeAlignerRight 0.000000 0.000000 0.000000 0.000000 0.000000 0.000000 10.000000 
R_Toe1_01 0.000000 0.000000 0.000000 0.000000 0.000000 0.000000 10.000000 
R_Toe2_01 0.000000 0.000000 0.000000 0.000000 0.000000 0.000000 10.000000 
R_Toe3_01 0.000000 0.000000 0.000000 0.000000 0.000000 0.000000 10.000000 
planeLockWeightRight 0.000000 0.000000 0.000000 0.000000 0.000000 0.000000 10.000000 
R_Toe1_02 0.000000 0.000000 0.000000 0.000000 0.000000 0.000000 10.000000 
R_Toe1_03 0.000000 0.000000 0.000000 0.000000 0.000000 0.000000 10.000000 
R_Toe2_02 0.000000 0.000000 0.000000 0.000000 0.000000 0.000000 10.000000 
R_Toe2_03 0.000000 0.000000 0.000000 0.000000 0.000000 0.000000 10.000000 
R_Toe3_02 0.000000 0.000000 0.000000 0.000000 0.000000 0.000000 10.000000 
R_Toe3_03 0.000000 0.000000 0.000000 0.000000 0.000000 0.000000 10.000000 
Rear_Leg02 0.000000 0.000000 0.000000 0.000000 0.000000 0.000000 10.000000 
Rear_Leg03 0.000000 0.000000 0.000000 0.000000 0.000000 0.000000 10.000000 
Rear_Leg04 0.000000 0.000000 0.000000 0.000000 0.000000 0.000000 10.000000 
Rear_Foot 0.000000 0.000000 0.000000 0.000000 0.000000 0.000000 10.000000 
planeAlignerCenter 0.000000 0.000000 0.000000 0.000000 0.000000 0.000000 10.000000 
Rear_Toe1_01 0.000000 0.000000 0.000000 0.000000 0.000000 0.000000 10.000000 
Rear_Toe2_01 0.000000 0.000000 0.000000 0.000000 0.000000 0.000000 10.000000 
Rear_Toe3_01 0.000000 0.000000 0.000000 0.000000 0.000000 0.000000 10.000000 
planeLockWeightCenter 0.000000 0.000000 0.000000 0.000000 0.000000 0.000000 10.000000 
Rear_Toe1_02 0.000000 0.000000 0.000000 0.000000 0.000000 0.000000 10.000000 
Rear_Toe1_03 0.000000 0.000000 0.000000 0.000000 0.000000 0.000000 10.000000 
Rear_Toe2_02 0.000000 0.000000 0.000000 0.000000 0.000000 0.000000 10.000000 
Rear_Toe2_03 0.000000 0.000000 0.000000 0.000000 0.000000 0.000000 10.000000 
Rear_Toe3_02 0.000000 0.000000 0.000000 0.000000 0.000000 0.000000 10.000000 
Rear_Toe3_03 0.000000 0.000000 0.000000 0.000000 0.000000 0.000000 10.000000 
Back_Bone 0.000000 0.000000 0.000000 0.000000 0.000000 0.000000 10.000000 
Head 0.000000 0.000000 0.000000 0.000000 0.000000 0.000000 10.000000 
Motor_Bone 0.000000 0.000000 0.000000 0.000000 0.000000 0.000000 10.000000 
Ping_Mechanism 0.000000 0.000000 0.000000 0.000000 0.000000 0.000000 10.000000 
BN_LookIK 0.000000 0.000000 0.000000 0.000000 0.000000 0.000000 10.000000 
bottomMouth 0.000000 0.000000 0.000000 0.000000 0.000000 0.000000 10.000000 
L_Mouth01 0.000000 0.000000 0.000000 0.000000 0.000000 0.000000 10.000000 
L_mouthFront 0.000000 0.000000 0.000000 0.000000 0.000000 0.000000 10.000000 
mouthGun 0.000000 0.000000 0.000000 0.000000 0.000000 0.000000 10.000000 
R_Mouth01 0.000000 0.000000 0.000000 0.000000 0.000000 0.000000 10.000000 
R_mouthFront 0.000000 0.000000 0.000000 0.000000 0.000000 0.000000 10.000000 
TopMouth 0.000000 0.000000 0.000000 0.000000 0.000000 0.000000 10.000000 
weapon_bone 0.000000 0.000000 0.000000 0.000000 0.000000 0.000000 10.000000 
#Beginning of Data. Separated by tabs
#Fr	Tx	Ty	Tz	Rx	Ry	Rz	SF
[Pinger_Root]
126 0.000000 0.000000 0.000000 -0.000075 -0.000000 -0.000020 0.000000
127 0.000000 0.000000 0.000000 -0.000075 -0.000000 -0.000020 0.000000
128 0.000000 0.000000 0.000000 -0.000075 -0.000000 -0.000020 0.000000
[Pelvis]
126 731.382629 4363.046387 2058.256836 -80.992859 -22.707895 87.842987 4879.294434
127 738.041809 4363.046387 2056.172852 -80.581123 -23.134365 87.754417 4879.418457
128 738.041809 4363.046387 2056.172852 -80.434410 -23.286499 87.723083 4879.418457
[L_Hip]
126 5.766392 125.831482 872.656799 -178.253311 -81.787758 87.381340 881.701050
127 5.766392 125.831482 872.656799 -178.253311 -81.787758 87.381340 881.701050
128 5.766392 125.831482 872.656799 -178.253311 -81.787712 87.381248 881.701050
[R_Hip]
126 5.765438 125.836372 -872.654907 -0.668460 81.788620 87.384422 881.699829
127 5.765438 125.836372 -872.654907 -0.667959 81.788589 87.384102 881.699829
128 5.765438 125.836372 -872.654907 -0.667470 81.788620 87.383835 881.699829
[Rear_Leg01]
126 -192.298416 -925.602966 -0.001907 109.624840 28.594200 170.594177 945.367432
127 -192.298416 -925.602966 -0.001907 109.458611 28.553022 169.824890 945.367432
128 -192.298416 -925.602966 -0.001907 109.433731 28.613312 169.862335 945.367432
[Spine1]
126 290.604584 5.007505 0.000477 28.094902 18.470047 -2.925825 290.647736
127 290.604584 5.007505 0.000477 27.947075 18.566118 -1.974166 290.647736
128 290.604584 5.007505 0.000477 27.804045 18.556360 -1.865004 290.647736
[L_Leg01]
126 761.932007 -0.002384 -0.069261 62.509613 -22.455175 -62.081863 761.932068
127 761.932007 -0.002384 -0.069261 64.467285 -23.087082 -62.351753 761.932068
128 761.932007 -0.002384 -0.069261 65.250687 -23.400005 -62.469341 761.932068
[L_Leg02]
126 1441.140503 -0.000954 -0.000715 -6.704615 1.548221 -113.245384 1441.140503
127 1441.140503 -0.000954 -0.000715 -6.540096 1.508542 -114.363533 1441.140503
128 1441.140503 -0.000954 -0.000715 -6.460577 1.494235 -114.882950 1441.140503
[L_Leg03]
126 1686.963989 -0.000715 -0.000954 0.001369 0.000938 110.392525 1686.963989
127 1686.963989 -0.000715 -0.000954 0.000899 0.001614 110.430672 1686.963989
128 1686.963989 -0.000715 -0.000954 0.000430 0.002291 110.468796 1686.963989
[L_Foot]
126 3041.570068 -30.715107 11.297464 14.784554 19.341291 58.719074 3041.746094
127 3041.570068 -30.715107 11.297464 14.087770 19.381489 58.620605 3041.746094
128 3041.570068 -30.715107 11.297464 13.871215 19.411163 58.650192 3041.746094
[L_Toe1_01]
126 -188.216690 -224.732346 -21.137953 97.739899 -11.133466 -134.168472 293.899567
127 -188.216690 -224.732346 -21.137953 97.739899 -11.133466 -134.168472 293.899567
128 -188.216690 -224.732346 -21.137953 97.739899 -11.133466 -134.168472 293.899567
[L_Toe2_01]
126 200.746536 -219.926590 148.838394 -72.394371 -9.740401 -96.946823 332.896027
127 200.746536 -219.926590 148.838394 -72.394371 -9.740401 -96.946823 332.896027
128 200.746536 -219.926590 148.838394 -72.394371 -9.740401 -96.946823 332.896027
[L_Toe3_01]
126 188.832520 -219.859131 -191.078659 -109.723152 -9.067774 -109.997963 347.140900
127 188.832520 -219.859131 -191.078659 -109.723152 -9.067774 -109.997963 347.140900
128 188.832520 -219.859131 -191.078659 -109.723145 -9.067776 -109.997963 347.140900
[planeAlignerLeft]
126 0.812531 -811.448792 -0.314951 0.000000 -90.000000 -90.001900 811.449280
127 0.812531 -811.448792 -0.314951 0.000000 -90.000000 -90.001900 811.449280
128 0.812531 -811.448792 -0.314951 0.000000 -90.000000 -90.001900 811.449280
[L_Toe1_02]
126 413.761139 0.000477 0.000000 0.001461 -16.934589 0.001461 413.761139
127 413.761139 0.000477 0.000000 0.001461 -16.934593 0.001461 413.761139
128 413.761139 0.000477 0.000000 0.001461 -16.934595 0.001461 413.761139
[L_Toe1_03]
126 464.317322 0.000358 -0.000089 -179.995453 79.529083 -179.991943 464.317322
127 464.317322 0.000358 -0.000089 -179.995453 79.529129 -179.991943 464.317322
128 464.317322 0.000358 -0.000089 -179.995453 79.529129 -179.991943 464.317322
[L_Toe2_02]
126 342.235809 -0.000477 0.000238 0.001188 -72.199875 0.001188 342.235809
127 342.235809 -0.000477 0.000238 0.001188 -72.199875 0.001188 342.235809
128 342.235809 -0.000477 0.000238 0.001188 -72.199883 0.001188 342.235809
[L_Toe2_03]
126 420.210846 -0.000715 0.000000 0.026031 84.831688 0.026031 420.210846
127 420.210846 -0.000715 0.000000 0.026031 84.831604 0.026031 420.210846
128 420.210846 -0.000715 0.000000 0.026031 84.831688 0.026031 420.210846
[L_Toe3_02]
126 329.270111 0.000954 0.000000 0.001187 -72.585991 0.001187 329.270111
127 329.270111 0.000954 0.000000 0.001187 -72.585991 0.001187 329.270111
128 329.270111 0.000954 0.000000 0.001187 -72.585991 0.001187 329.270111
[L_Toe3_03]
126 439.137451 -0.001907 0.000954 0.012059 78.829552 0.012059 439.137451
127 439.137451 -0.001907 0.000954 0.012059 78.829590 0.012059 439.137451
128 439.137451 -0.001907 0.000954 0.012059 78.829605 0.012059 439.137451
[planeLockWeightLeft]
126 -0.000954 0.000238 -0.000305 -0.011826 -0.004376 0.005620 0.001029
127 -0.000954 0.000238 -0.000305 -0.011826 -0.004376 0.005620 0.001029
128 -0.000954 0.000238 -0.000305 -0.011826 -0.004376 0.005620 0.001029
[R_Leg01]
126 761.455627 -0.001907 -0.000358 98.783882 -4.688094 67.100349 761.455688
127 761.455627 -0.001907 -0.000358 97.754738 -0.883696 66.039101 761.455688
128 761.455627 -0.001907 -0.000358 97.219330 0.352821 65.179398 761.455688
[R_Leg02]
126 1441.140625 0.000000 -0.000238 -3.483208 1.300357 -100.155006 1441.140625
127 1441.140625 0.000000 -0.000238 -4.473076 1.683681 -95.086876 1441.140625
128 1441.140625 0.000000 -0.000238 -4.787655 1.876130 -92.383423 1441.140625
[R_Leg03]
126 1686.963989 0.000954 0.001431 -0.028578 0.006609 102.349693 1686.963989
127 1686.963989 0.000954 0.001431 -0.028588 0.006563 102.165459 1686.963989
128 1686.963989 0.000954 0.001431 -0.031775 0.010183 101.323906 1686.963989
[R_Foot]
126 3041.560059 -30.531288 -11.204481 -16.974342 -67.298759 91.773628 3041.734131
127 3041.560059 -30.531288 -11.204481 -15.725204 -68.219658 88.809029 3041.734131
128 3041.560059 -30.531288 -11.204481 -14.150208 -68.809128 86.400627 3041.734131
[planeAlignerRight]
126 -0.635147 -812.270569 -0.364304 0.000000 -89.960434 -90.005180 812.270874
127 -0.635147 -812.270569 -0.364304 0.000000 -89.960434 -90.005180 812.270874
128 -0.635147 -812.270569 -0.364304 0.000000 -89.960434 -90.005180 812.270874
[R_Toe1_01]
126 -188.383347 -224.864899 21.052242 95.267143 -8.428377 -147.440292 294.101532
127 -188.383347 -224.864899 21.052242 95.267143 -8.428377 -147.440292 294.101532
128 -188.383347 -224.864899 21.052242 95.267143 -8.428377 -147.440308 294.101532
[R_Toe2_01]
126 200.637817 -220.002121 -148.787384 -107.135925 -7.390876 -78.709190 332.857574
127 200.637817 -220.002121 -148.787384 -107.135910 -7.390750 -78.709351 332.857574
128 200.637817 -220.002121 -148.787384 -107.135910 -7.390623 -78.709534 332.857574
[R_Toe3_01]
126 188.606735 -220.092957 191.126343 -66.513268 -18.109306 -81.828194 347.192566
127 188.606735 -220.092957 191.126343 -66.513268 -18.109308 -81.828194 347.192566
128 188.606735 -220.092957 191.126343 -66.513268 -18.109310 -81.828194 347.192566
[planeLockWeightRight]
126 -0.000477 0.000000 0.000000 -0.011823 -0.004379 -0.000027 0.000477
127 -0.000477 0.000000 0.000000 -0.011823 -0.004379 -0.000027 0.000477
128 -0.000477 0.000000 0.000000 -0.011823 -0.004379 -0.000027 0.000477
[R_Toe1_02]
126 413.762085 0.000477 -0.000119 0.001490 -13.954247 0.001490 413.762085
127 413.762085 0.000477 -0.000119 0.001490 -13.953914 0.001490 413.762085
128 413.762085 0.000477 -0.000119 0.001490 -13.953583 0.001490 413.762085
[R_Toe1_03]
126 464.317810 0.000000 0.001088 -179.998322 70.824997 -179.994781 464.317810
127 464.317810 0.000000 0.001088 -179.998322 70.824188 -179.994781 464.317810
128 464.317810 0.000000 0.001088 -179.998322 70.823387 -179.994781 464.317810
[R_Toe2_02]
126 342.234741 -0.000954 0.000238 -0.002330 -80.908607 -0.002330 342.234741
127 342.234741 -0.000954 0.000238 -0.002330 -80.908607 -0.002330 342.234741
128 342.234741 -0.000954 0.000238 -0.002330 -80.908607 -0.002330 342.234741
[R_Toe2_03]
126 420.210846 0.000715 -0.000268 -179.996521 48.174637 179.999741 420.210846
127 420.210846 0.000715 -0.000268 -179.996521 48.174637 179.999741 420.210846
128 420.210846 0.000715 -0.000268 -179.996521 48.174641 179.999741 420.210846
[R_Toe3_02]
126 329.270355 -0.000477 -0.000954 0.001175 -84.466072 0.001175 329.270355
127 329.270355 -0.000477 -0.000954 0.001175 -84.466003 0.001175 329.270355
128 329.270355 -0.000477 -0.000954 0.001175 -84.466003 0.001175 329.270355
[R_Toe3_03]
126 439.137939 0.000238 0.001431 -179.996521 52.183174 -179.989136 439.137939
127 439.137939 0.000238 0.001431 -179.996521 52.183174 -179.989136 439.137939
128 439.137939 0.000238 0.001431 -179.996521 52.183174 -179.989136 439.137939
[Rear_Leg02]
126 1162.777710 -0.029802 0.005960 -13.218028 14.727736 -35.113548 1162.777710
127 1162.777710 -0.029802 0.005960 -14.613717 15.170578 -36.784439 1162.777710
128 1162.777710 -0.029802 0.005960 -14.733855 15.071603 -37.247272 1162.777710
[Rear_Leg03]
126 607.192505 -0.013351 -0.073195 0.008774 0.003205 49.865086 607.192505
127 607.192505 -0.013351 -0.073195 0.008788 0.003166 50.378284 607.192505
128 607.192505 -0.013351 -0.073195 0.008794 0.003148 50.607944 607.192505
[Rear_Leg04]
126 995.874512 -0.020504 -0.011921 -0.033454 -0.014064 33.323559 995.874573
127 995.874512 -0.020504 -0.011921 -0.033549 -0.013836 34.103878 995.874573
128 995.874512 -0.020504 -0.011921 -0.033591 -0.013734 34.450634 995.874573
[Rear_Foot]
126 3096.176270 -0.067472 -0.041425 145.020554 74.136757 -63.001385 3096.176270
127 3096.176270 -0.067472 -0.041425 144.672592 74.331963 -64.497398 3096.176270
128 3096.176270 -0.067472 -0.041425 144.225647 74.525261 -65.346054 3096.176270
[planeAlignerCenter]
126 0.350077 0.966311 -838.790894 0.000009 0.000003 -179.999985 838.791565
127 0.350077 0.966311 -838.790894 0.000009 0.000003 -179.999985 838.791565
128 0.350077 0.966311 -838.790894 0.000009 0.000003 -179.999985 838.791565
[Rear_Toe1_01]
126 0.653352 83.966492 -371.173737 -25.701960 47.253593 60.085831 380.553192
127 0.653352 83.966492 -371.173737 -25.701960 47.253593 60.085831 380.553192
128 0.653352 83.966492 -371.173737 -25.701960 47.253593 60.085831 380.553192
[Rear_Toe2_01]
126 178.200760 -294.826019 -362.060547 86.963257 68.897911 22.562050 499.765686
127 178.200760 -294.826019 -362.060547 86.963257 68.897911 22.562050 499.765686
128 178.200760 -294.826019 -362.060547 86.963257 68.897911 22.562050 499.765686
[Rear_Toe3_01]
126 -153.359680 -308.780914 -362.060852 121.591194 67.562042 14.819202 499.952881
127 -153.359680 -308.780914 -362.060852 121.591194 67.562042 14.819202 499.952881
128 -153.359680 -308.780914 -362.060852 121.591194 67.562042 14.819202 499.952881
[planeLockWeightCenter]
126 -0.000062 0.000238 0.000000 -0.011814 -0.004373 -0.000015 0.000246
127 -0.000062 0.000238 0.000000 -0.011814 -0.004373 -0.000015 0.000246
128 -0.000062 0.000238 0.000000 -0.011814 -0.004373 -0.000015 0.000246
[Rear_Toe1_02]
126 379.707825 0.194073 0.000477 -0.006664 -31.692160 -0.006664 379.707855
127 379.707825 0.194073 0.000477 -0.006664 -31.692173 -0.006664 379.707855
128 379.707825 0.194073 0.000477 -0.006664 -31.692160 -0.006664 379.707855
[Rear_Toe1_03]
126 500.129700 0.165701 0.000119 -179.990891 81.030014 -179.994400 500.129761
127 500.129700 0.165701 0.000119 -179.990891 81.030014 -179.994400 500.129761
128 500.129700 0.165701 0.000119 -179.990891 81.030014 -179.994400 500.129761
[Rear_Toe2_02]
126 340.494507 0.000238 -0.000954 0.001175 -85.021606 0.001175 340.494507
127 340.494507 0.000238 -0.000954 0.001175 -85.021606 0.001175 340.494507
128 340.494507 0.000238 -0.000954 0.001175 -85.021606 0.001175 340.494507
[Rear_Toe2_03]
126 433.103577 0.000000 0.000238 179.984879 81.101570 179.984879 433.103546
127 433.103577 0.000000 0.000238 179.984879 81.101547 179.984879 433.103546
128 433.103577 0.000000 0.000238 179.984879 81.101547 179.984879 433.103546
[Rear_Toe3_02]
126 340.494141 -0.000358 -0.000477 0.001174 -89.037949 0.001174 340.494171
127 340.494141 -0.000358 -0.000477 0.001174 -89.038559 0.001174 340.494171
128 340.494141 -0.000358 -0.000477 0.001174 -89.038559 0.001174 340.494171
[Rear_Toe3_03]
126 433.103577 0.001431 -0.000238 -179.998505 69.756042 -179.994949 433.103546
127 433.103577 0.001431 -0.000238 -179.998505 69.756073 -179.994949 433.103546
128 433.103577 0.001431 -0.000238 -179.998505 69.756042 -179.994949 433.103546
[Back_Bone]
126 1312.175781 -701.934692 0.000954 0.415807 10.036700 -84.468460 1488.125488
127 1312.175781 -701.934692 0.000954 -0.336650 11.211188 -84.616920 1488.125488
128 1312.175781 -701.934692 0.000954 -0.745787 11.729813 -84.655846 1488.125488
[Head]
126 1406.159424 809.709290 0.001431 15.904446 -9.866802 9.517316 1622.625488
127 1406.159424 809.709290 0.001431 15.904446 -9.866802 9.517316 1622.625488
128 1406.159424 809.709290 0.001431 15.904444 -9.866801 9.517315 1622.625488
[Motor_Bone]
126 1158.364380 -417.834747 0.000477 -17.638041 28.203886 -75.133408 1231.419434
127 1158.364380 -417.834747 0.000477 -17.691900 26.526495 -73.261772 1231.419434
128 1158.364380 -417.834747 0.000477 -17.805347 24.851543 -71.414566 1231.419434
[Ping_Mechanism]
126 1246.996582 -443.370361 45.020439 0.000103 -0.000053 82.120995 1324.237305
127 1243.712402 -444.717407 43.831024 0.000103 -0.000053 82.120995 1321.557983
128 1243.511719 -444.768433 43.762512 0.000103 -0.000053 82.120995 1321.383911
[BN_LookIK]
126 193.241119 1380.371704 -0.002861 0.000000 89.965736 -31.038179 1393.832153
127 193.241119 1380.371704 -0.002861 0.000000 89.965736 -31.038179 1393.832153
128 193.241119 1380.371704 -0.002861 0.000000 89.965736 -31.038179 1393.832153
[bottomMouth]
126 -435.092926 615.759399 -0.000954 -0.000022 0.000016 73.527184 753.966492
127 -435.092926 615.759399 -0.000954 -0.000022 0.000016 73.527184 753.966492
128 -435.092926 615.759399 -0.000954 -0.000022 0.000016 73.527184 753.966492
[L_Mouth01]
126 554.440979 7.658243 838.222046 150.204178 23.759130 109.605339 1005.027161
127 554.440979 7.658243 838.222046 150.204178 23.759130 109.605339 1005.027161
128 554.440979 7.658243 838.222046 150.204178 23.759130 109.605339 1005.027161
[L_mouthFront]
126 551.629089 934.514771 339.150421 0.000081 2.804060 79.119301 1136.941284
127 551.629089 934.514771 339.150421 0.000081 2.804060 79.119301 1136.941284
128 551.629089 934.514771 339.150421 0.000081 2.804060 79.119301 1136.941284
[mouthGun]
126 55.332661 1627.420898 0.000000 0.000023 0.000009 -11.038128 1628.361328
127 55.332661 1627.420898 0.000000 0.000023 0.000009 -11.038128 1628.361328
128 55.332661 1627.420898 0.000000 0.000023 0.000009 -11.038128 1628.361328
[R_Mouth01]
126 554.442383 7.659197 -838.223938 29.795891 -23.759109 109.605331 1005.029541
127 554.442383 7.659197 -838.223938 29.795891 -23.759109 109.605331 1005.029541
128 554.442383 7.659197 -838.223938 29.795891 -23.759109 109.605331 1005.029541
[R_mouthFront]
126 551.629089 934.514282 -339.151367 0.000029 -2.803930 79.119133 1136.941162
127 551.629089 934.514282 -339.151367 0.000029 -2.803930 79.119133 1136.941162
128 551.629089 934.514282 -339.151367 0.000029 -2.803930 79.119133 1136.941162
[TopMouth]
126 461.269867 -56.106091 -0.008583 -0.000059 -0.000268 92.025169 464.669525
127 461.269867 -56.106091 -0.008583 -0.000059 -0.000268 92.025169 464.669525
128 461.269867 -56.106091 -0.008583 -0.000059 -0.000268 92.025169 464.669525
[weapon_bone]
126 -987.239868 1448.372803 0.001431 0.000000 89.965736 -31.038221 1752.833740
127 -987.239868 1448.372803 0.001431 0.000000 89.965736 -31.038221 1752.833740
128 -987.239868 1448.372803 0.001431 0.000000 89.965736 -31.038221 1752.833740
